# xmcd
#
# Track frame offsets: 
#        150
#        14055
#        26509
#        39051
#        51537
#        63953
#        75990
#        88960
#        101560
#        115028
#        131204
#
# Disc length: 1948 seconds
#
# Revision: 0
# Processed by: cddbd v1.5.2PL0 Copyright (c) Steve Scherf et al.
# Submitted via: ExactAudioCopy v0.99pb4
#
DISCID=8b079a0b
DTITLE=Johnny Cash - 20th Century Masters - The Millennium Collection 
DTITLE=The Best Of Johnny Cash Vol. 2
DYEAR=2007
DGENRE=Country
TTITLE0=The Highwayman
TTITLE1=Sixteen Tons
TTITLE2=W. Lee O'Daniel
TTITLE3=My Ship Will Sail
TTITLE4=Ring Of Fire
TTITLE5=The Ways Of A Woman In Love
TTITLE6=That Old Wheel
TTITLE7=Ballad Of A Teenage Queen
TTITLE8=Where Did We Go Right
TTITLE9=The Greatest Cowboy Of Them All
TTITLE10=Goin' By The Book
EXTD=
EXTT0=
EXTT1=
EXTT2=
EXTT3=
EXTT4=
EXTT5=
EXTT6=
EXTT7=
EXTT8=
EXTT9=
EXTT10=
PLAYORDER=
